<svg xmlns="http://www.w3.org/2000/svg" xmlns:xlink="http://www.w3.org/1999/xlink" width="500" height="500" viewBox="0 0 500 500"><defs><linearGradient id="a" x1="234.39" y1="236.97" x2="234.39" y2="230.96" gradientUnits="userSpaceOnUse"><stop offset="0" stop-color="#ffea6c" stop-opacity="0.67"/><stop offset="0.19" stop-color="#ffea6c" stop-opacity="0.56"/><stop offset="0.6" stop-color="#ffea6c" stop-opacity="0.29"/><stop offset="1" stop-color="#ffea6c" stop-opacity="0"/></linearGradient><linearGradient id="b" x1="262.26" y1="236.97" x2="262.26" y2="230.96" xlink:href="#a"/><linearGradient id="c" x1="226.39" y1="257.89" x2="226.39" y2="250.79" xlink:href="#a"/><linearGradient id="d" x1="272.73" y1="257.89" x2="272.73" y2="250.79" xlink:href="#a"/><linearGradient id="e" x1="249.65" y1="260.11" x2="249.65" y2="253" xlink:href="#a"/><linearGradient id="f" x1="207.75" y1="251.42" x2="207.75" y2="244.32" xlink:href="#a"/><linearGradient id="g" x1="291.38" y1="251.42" x2="291.38" y2="244.32" xlink:href="#a"/><clipPath id="h"><path d="M428.39,203.39v-.08h0l-.65-63.1-39.27,49.42a.41.41,0,0,0-.22.21c-.41,1.2,7.76,6.66,18.84,10.42s20.88,4.38,21.29,3.17v0Z" style="fill:none"/></clipPath><clipPath id="i"><path d="M80.39,217.75v-.08h0L81,154.56,120.31,204a.37.37,0,0,1,.22.2c.41,1.21-7.75,6.67-18.83,10.43S80.81,219,80.4,217.79v0Z" style="fill:none"/></clipPath><linearGradient id="j" x1="413.02" y1="230.91" x2="413.02" y2="291.82" gradientUnits="userSpaceOnUse"><stop offset="0" stop-color="#fff"/><stop offset="0.86" stop-color="#fff" stop-opacity="0"/></linearGradient><linearGradient id="k" x1="138.74" y1="111.54" x2="138.74" y2="154.51" xlink:href="#j"/><linearGradient id="l" x1="358.8" y1="108.77" x2="358.8" y2="157.1" xlink:href="#j"/><linearGradient id="m" x1="83.83" y1="269.2" x2="83.83" y2="312.66" xlink:href="#j"/><linearGradient id="n" x1="157.1" y1="233.26" x2="157.1" y2="277.79" xlink:href="#j"/><linearGradient id="o" x1="334.16" y1="229.37" x2="334.16" y2="263.01" gradientTransform="matrix(0.99, 0.15, -0.15, 0.99, 45.69, -51.83)" xlink:href="#j"/><clipPath id="p"><path d="M402.79,311.23c-3.08-2.12-8.25,0-11.55,4.81s-3.46,10.38-.38,12.5,8.25,0,11.54-4.81S405.87,313.35,402.79,311.23Z" style="fill:none"/></clipPath><clipPath id="q"><path d="M127,324c1.95,1.46,5.37.2,7.64-2.81s2.55-6.66.6-8.13-5.37-.2-7.64,2.82S125.06,322.53,127,324Z" style="fill:none"/></clipPath><clipPath id="r"><path d="M107.27,273c-1.7,1.77-.84,5.33,1.9,8s6.34,3.32,8,1.55.84-5.33-1.9-8S109,271.21,107.27,273Z" style="fill:none"/></clipPath><clipPath id="s"><path d="M121.46,171.71c3.15.47,6.3-3.11,7-8s-1.24-9.24-4.39-9.71-6.31,3.11-7,8S118.3,171.24,121.46,171.71Z" style="fill:none"/></clipPath><clipPath id="t"><path d="M337.27,142.94c-2.15-2-6.4-.9-9.49,2.44s-3.85,7.67-1.69,9.66,6.4.89,9.49-2.45S339.42,144.93,337.27,142.94Z" style="fill:none"/></clipPath><clipPath id="u"><path d="M367.8,272.09c2.82.78,6.1-2.14,7.31-6.52s-.1-8.58-2.93-9.36-6.1,2.14-7.31,6.53S365,271.31,367.8,272.09Z" style="fill:none"/></clipPath><clipPath id="v"><path d="M219.27,103.85c-2,1.77-1.31,5.66,1.44,8.69s6.55,4.06,8.5,2.29,1.31-5.66-1.43-8.69S221.23,102.09,219.27,103.85Z" style="fill:none"/></clipPath><clipPath id="w"><ellipse cx="289.21" cy="438.44" rx="9.65" ry="14.97" transform="translate(-163.3 705.11) rotate(-87.1)" style="fill:none"/></clipPath><clipPath id="x"><path d="M388.24,387.53c.64,3.34,5.36,5.23,10.53,4.23s8.84-4.51,8.2-7.84-5.36-5.23-10.53-4.23S387.6,384.2,388.24,387.53Z" style="fill:none"/></clipPath><clipPath id="y"><ellipse cx="131.72" cy="413.56" rx="9.54" ry="6.15" transform="translate(-76.02 32.47) rotate(-10.93)" style="fill:none"/></clipPath><clipPath id="z"><path d="M106.05,391.32c-.16,3,3.55,5.71,8.27,5.95s8.68-2,8.84-5.08-3.55-5.71-8.27-5.95S106.2,388.27,106.05,391.32Z" style="fill:none"/></clipPath><clipPath id="aa"><path d="M253.22,446.54c1.05,4.79,7.93,7.35,15.36,5.72s12.59-6.84,11.54-11.63-7.92-7.35-15.35-5.71S252.17,441.75,253.22,446.54Z" style="fill:none"/></clipPath><clipPath id="ab"><path d="M363.12,416.3c.89,4.68,7.49,7.35,14.75,6s12.41-6.29,11.52-11-7.49-7.35-14.75-6S362.23,411.62,363.12,416.3Z" style="fill:none"/></clipPath><clipPath id="ac"><path d="M140.78,439l.05-.13h0l37.08-104.42,37,104.48a.67.67,0,0,1,.24.46c0,2.23-16.68,6.65-37.22,6.56s-37.18-4.63-37.17-6.87c0,0,0,0,0-.07Z" style="fill:none"/></clipPath></defs><g style="isolation:isolate"><ellipse cx="249.62" cy="401.24" rx="127.47" ry="40.41" style="fill:#55b9e5"/><path d="M249.62,354.27,146.09,329.18v68.15s10.66,27,103.53,27c22.17,0,39.65-1.54,53.42-3.88V341.32Z" style="fill:#fff"/><path d="M303,341.32v79.13c43.93-7.47,50.11-23.12,50.11-23.12V329.18Z" style="fill:#efeae4"/><ellipse cx="249.62" cy="329.18" rx="103.53" ry="25.11" style="fill:#eae4d8"/><path d="M249.62,287.55l-68-20.08v54.21s7.81,12.95,68,12.95a294.33,294.33,0,0,0,32.19-1.56V278Z" style="fill:#fff"/><path d="M281.81,278v55c31-3.44,35.81-11.39,35.81-11.39V267.47Z" style="fill:#efeae4"/><path d="M316.71,264.2c-5.29-9.53-33.31-16.8-67.09-16.8-37.55,0-68,9-68,20.07,0,2.85,2,5.57,5.65,8,10.49,7.09,34.45,12,62.34,12,37.56,0,68-9,68-20.07A6.6,6.6,0,0,0,316.71,264.2Z" style="fill:#eae4d8"/><path d="M316,302.64c-11.89,14.28-27.46,6.66-28.09,6.34a4.71,4.71,0,0,0-5.23.61c-13.91,12-29.66,1.48-30.37,1l-.06,0-.25-.16-.16-.09-.23-.11-.2-.09-.2-.07-.25-.08-.16-.05-.28-.06-.16,0-.28,0h-.89l-.24,0-.2,0-.25.06-.19.05-.23.08-.21.08-.19.08-.25.12-.15.09-.26.16-.06,0c-.16.11-16.31,11.09-30.35-1a4.71,4.71,0,0,0-5.23-.61,25.92,25.92,0,0,1-9.53,2.28c-7.27.35-13.52-2.56-18.57-8.62a4.66,4.66,0,0,0-1.63-1.25V314.1a30.58,30.58,0,0,0,20.64,6.55,36.39,36.39,0,0,0,10.49-2.11,31.22,31.22,0,0,0,18.67,6.16,34.81,34.81,0,0,0,7.5-.83,41.76,41.76,0,0,0,10.69-4,41.86,41.86,0,0,0,10.7,4,34.81,34.81,0,0,0,7.5.83,31.19,31.19,0,0,0,18.66-6.16,36.47,36.47,0,0,0,10.5,2.11,30.6,30.6,0,0,0,20.64-6.55V301.39A4.69,4.69,0,0,0,316,302.64Z" style="fill:#4080ff"/><path d="M316,296.77c-11.89,14.28-27.46,6.66-28.09,6.33a4.71,4.71,0,0,0-5.23.62c-13.91,12-29.66,1.48-30.37,1l-.06,0-.25-.16-.16-.09-.23-.11-.2-.09-.2-.07-.25-.08-.16-.05-.28-.06-.16,0-.28,0h-.66l-.23,0-.24,0-.2,0-.25.06-.19.05-.23.08-.21.08-.19.08-.25.12-.15.08-.26.17-.06,0c-.16.11-16.31,11.09-30.35-1a4.71,4.71,0,0,0-5.23-.62,25.81,25.81,0,0,1-9.53,2.29c-7.27.34-13.52-2.56-18.57-8.62a4.69,4.69,0,0,0-1.63-1.26v12.72a30.63,30.63,0,0,0,20.64,6.55,36.74,36.74,0,0,0,10.49-2.11,31.22,31.22,0,0,0,18.67,6.16,35.45,35.45,0,0,0,7.5-.83,41.76,41.76,0,0,0,10.69-4,41.86,41.86,0,0,0,10.7,4,35.45,35.45,0,0,0,7.5.83,31.19,31.19,0,0,0,18.66-6.16,36.82,36.82,0,0,0,10.5,2.11,30.66,30.66,0,0,0,20.64-6.55V295.51A4.72,4.72,0,0,0,316,296.77Z" style="fill:#43b3ff"/><path d="M316,291c-11.89,14.28-27.46,6.66-28.09,6.34a4.71,4.71,0,0,0-5.23.61c-13.91,12-29.66,1.48-30.37,1l-.06,0-.25-.15-.16-.09-.23-.11-.2-.1-.2-.07-.25-.08-.16,0-.28-.07-.16,0-.28,0h-.89l-.24,0a.69.69,0,0,0-.2,0l-.25.05-.19.06-.23.07-.21.08-.19.08-.25.12-.15.09-.26.16-.06,0c-.16.11-16.31,11.09-30.35-1a4.71,4.71,0,0,0-5.23-.61,26,26,0,0,1-9.53,2.29c-7.27.34-13.52-2.57-18.57-8.63a4.66,4.66,0,0,0-1.63-1.25v12.72A30.61,30.61,0,0,0,202.27,309a36.44,36.44,0,0,0,10.49-2.1A31.21,31.21,0,0,0,231.43,313a35.43,35.43,0,0,0,7.5-.82,42.1,42.1,0,0,0,10.69-4,42.2,42.2,0,0,0,10.7,4,35.43,35.43,0,0,0,7.5.82,31.18,31.18,0,0,0,18.66-6.15A36.52,36.52,0,0,0,297,309a30.64,30.64,0,0,0,20.64-6.54V289.73A4.69,4.69,0,0,0,316,291Z" style="fill:#43b3ff"/><path d="M248.46,350.56a1.32,1.32,0,0,1,.2-.12Z" style="fill:#eae4d8"/><path d="M251.09,350.81l.15.16Z" style="fill:#eae4d8"/><path d="M250.89,350.62l-.11-.06.16.11Z" style="fill:#eae4d8"/><path d="M249.23,350.24l.19,0Z" style="fill:#eae4d8"/><path d="M249.62,350.2h0Z" style="fill:#eae4d8"/><path d="M248.84,350.36l.19-.07Z" style="fill:#eae4d8"/><path d="M250,350.24l.21.05Z" style="fill:#eae4d8"/><path d="M250.41,350.36l.18.08Z" style="fill:#eae4d8"/><path d="M248.15,350.82a1.14,1.14,0,0,1,.16-.15Z" style="fill:#eae4d8"/><path d="M249,350.29l.2-.05Z" style="fill:#eae4d8"/><path d="M248.36,350.62l-.05.05.15-.11Z" style="fill:#eae4d8"/><path d="M249.42,350.21h0Z" style="fill:#eae4d8"/><path d="M248.66,350.44l.18-.08Z" style="fill:#eae4d8"/><path d="M248,351l.14-.15Z" style="fill:#eae4d8"/><path d="M249.83,350.21l.18,0Z" style="fill:#eae4d8"/><path d="M250.94,350.67l.15.14Z" style="fill:#eae4d8"/><path d="M250.59,350.44a.76.76,0,0,1,.19.12A.76.76,0,0,0,250.59,350.44Z" style="fill:#eae4d8"/><path d="M250.22,350.29l.19.07Z" style="fill:#eae4d8"/><path d="M159.4,354c6.9,3.95,16.83,2.46,29.54-4.43-19.81-3.48-34.33-8.62-40.1-14.58C149.87,341.34,152.54,350,159.4,354Z" style="fill:none"/><path d="M225.82,364.13H226c6.91-.05,13.37-3.38,19.26-9.86a379.72,379.72,0,0,1-45-3C205.33,356.27,215,364.13,225.82,364.13Z" style="fill:none"/><path d="M339.85,354c6.86-3.93,9.52-12.61,10.56-19-5.77,6-20.29,11.1-40.1,14.58C323,356.41,332.94,357.91,339.85,354Z" style="fill:none"/><path d="M273.27,364.13h.16c10.83,0,20.5-7.86,25.56-12.87a380,380,0,0,1-45,3C259.89,360.76,266.36,364.09,273.27,364.13Z" style="fill:none"/><path d="M350.83,338a2.19,2.19,0,0,0-.52,1.07c-1.11,6.34-3.82,14.59-10.46,18.4-6.91,4-16.83,2.46-29.54-4.43q-2.37-1.28-4.86-2.81h0a2.09,2.09,0,0,0-2.73.49h0a50.59,50.59,0,0,1-3.72,4.06c-5.06,5-14.73,12.87-25.56,12.87h-.16c-6.91,0-13.38-3.37-19.27-9.86-.26-.29-.52-.57-.78-.87-.65-.76-1.3-1.54-1.94-2.38l0-.05-.15-.16-.15-.14-.16-.11a.76.76,0,0,0-.19-.12l-.18-.08-.19-.07-.21,0-.18,0h-.41l-.19,0-.2,0-.19.07-.18.08a1.32,1.32,0,0,0-.2.12l-.15.11a1.14,1.14,0,0,0-.16.15l-.14.15,0,.05c-.64.84-1.28,1.62-1.94,2.38l-.77.87c-5.89,6.48-12.35,9.81-19.26,9.86h-.17c-10.81,0-20.49-7.86-25.55-12.87a52.13,52.13,0,0,1-3.73-4.06h0a2.1,2.1,0,0,0-2.74-.49h0q-2.49,1.53-4.86,2.81c-12.71,6.89-22.64,8.38-29.54,4.43-6.65-3.81-9.36-12.06-10.46-18.4a2.21,2.21,0,0,0-.53-1.07,8.05,8.05,0,0,1-2.32-5.3V345a2.17,2.17,0,0,0,.1.62c1.81,5.87,5.1,12,11.12,15.46,8.63,5,20.63,3.1,35.69-5.52a2.09,2.09,0,0,1,2.56.4c4.78,5.14,16.41,15.87,30.26,15.87H226c8.05-.06,15.46-3.74,22.1-11a2.06,2.06,0,0,1,3,0c6.64,7.22,14.06,10.9,22.11,11h.18c13.84,0,25.47-10.73,30.25-15.87a2.09,2.09,0,0,1,2.56-.4c15.07,8.62,27.07,10.48,35.7,5.52,6-3.45,9.31-9.59,11.12-15.46a2.16,2.16,0,0,0,.09-.62v-12.3A8,8,0,0,1,350.83,338Z" style="fill:#4080ff"/><path d="M148.94,339l-.1-4.09s-2.68-2.43-2.73-5.41v4l.53,4.54Z" style="fill:#4080ff"/><path d="M350.32,339l.1-4.09s2.68-2.43,2.73-5.41v4l-.53,4.54Z" style="fill:#4080ff"/><path d="M152.55,376.31a4.53,4.53,0,1,1,4.53,4.53A4.53,4.53,0,0,1,152.55,376.31Z" style="fill:#4080ff"/><path d="M187.26,401.24a4.53,4.53,0,1,1,4.53,4.52A4.53,4.53,0,0,1,187.26,401.24Z" style="fill:#4080ff"/><path d="M178,380.84a3,3,0,1,1,3,3A3,3,0,0,1,178,380.84Z" style="fill:#43b3ff"/><path d="M162.18,397.12a2.3,2.3,0,1,1,2.29,2.29A2.29,2.29,0,0,1,162.18,397.12Z" style="fill:#43b3ff"/><path d="M206,387.59a2.3,2.3,0,1,1,2.3,2.29A2.3,2.3,0,0,1,206,387.59Z" style="fill:#43b3ff"/><path d="M240.72,407.26a2.3,2.3,0,1,1,2.3,2.29A2.29,2.29,0,0,1,240.72,407.26Z" style="fill:#43b3ff"/><path d="M284.5,395.14a2.3,2.3,0,1,1,2.29,2.29A2.29,2.29,0,0,1,284.5,395.14Z" style="fill:#43b3ff"/><path d="M316.51,389.09a2.3,2.3,0,1,1,2.3,2.29A2.3,2.3,0,0,1,316.51,389.09Z" style="fill:#43b3ff"/><path d="M344.18,386.79a2.3,2.3,0,1,1,2.29,2.3A2.28,2.28,0,0,1,344.18,386.79Z" style="fill:#43b3ff"/><path d="M212.6,407.26a3,3,0,1,1,3,3A3,3,0,0,1,212.6,407.26Z" style="fill:#43b3ff"/><path d="M260.8,392.11a3,3,0,1,1,3,3A3,3,0,0,1,260.8,392.11Z" style="fill:#43b3ff"/><path d="M304.25,404.23a3,3,0,1,1,3,3A3,3,0,0,1,304.25,404.23Z" style="fill:#43b3ff"/><path d="M327.33,376.75a3,3,0,1,1,3,3A3,3,0,0,1,327.33,376.75Z" style="fill:#43b3ff"/><path d="M231.67,387.59a4.53,4.53,0,1,1,4.53,4.52A4.53,4.53,0,0,1,231.67,387.59Z" style="fill:#4080ff"/><path d="M268.82,410.29a4.53,4.53,0,1,1,4.53,4.52A4.53,4.53,0,0,1,268.82,410.29Z" style="fill:#4080ff"/><path d="M296.1,383.06a4.53,4.53,0,1,1,4.52,4.53A4.53,4.53,0,0,1,296.1,383.06Z" style="fill:#4080ff"/><path d="M330.36,396.71a4.53,4.53,0,1,1,4.52,4.53A4.52,4.52,0,0,1,330.36,396.71Z" style="fill:#4080ff"/><path d="M232.66,235.73h3.46a0,0,0,0,1,0,0v19.59a.69.69,0,0,1-.69.69h-2.08a.69.69,0,0,1-.69-.69V235.73A0,0,0,0,1,232.66,235.73Z" style="fill:#43b3ff"/><path d="M234.39,223.38s-8.81,13.59,0,13.59S234.39,223.38,234.39,223.38Z" style="fill:#ffcd6d"/><path d="M234.39,231s-3.9,6,0,6S234.39,231,234.39,231Z" style="fill:url(#a)"/><path d="M260.53,235.73H264a0,0,0,0,1,0,0v19.59a.69.69,0,0,1-.69.69h-2.08a.69.69,0,0,1-.69-.69V235.73A0,0,0,0,1,260.53,235.73Z" style="fill:#43b3ff"/><path d="M262.26,223.38s-8.8,13.59,0,13.59S262.26,223.38,262.26,223.38Z" style="fill:#ffcd6d"/><path d="M262.26,231s-3.89,6,0,6S262.26,231,262.26,231Z" style="fill:url(#b)"/><path d="M224.35,256.43h4.09a0,0,0,0,1,0,0v23a1,1,0,0,1-1,1H225.3a1,1,0,0,1-1-1v-23A0,0,0,0,1,224.35,256.43Z" style="fill:#43b3ff"/><path d="M226.39,241.85s-10.39,16,0,16S226.39,241.85,226.39,241.85Z" style="fill:#ffcd6d"/><path d="M226.39,250.79s-4.6,7.1,0,7.1S226.39,250.79,226.39,250.79Z" style="fill:url(#c)"/><path d="M271.64,256.43h2.18a1,1,0,0,1,1,1v23a0,0,0,0,1,0,0h-4.09a0,0,0,0,1,0,0v-23A1,1,0,0,1,271.64,256.43Z" transform="translate(545.46 536.79) rotate(180)" style="fill:#43b3ff"/><path d="M272.73,241.85s10.39,16,0,16S272.73,241.85,272.73,241.85Z" style="fill:#ffcd6d"/><path d="M272.73,250.79s4.6,7.1,0,7.1S272.73,250.79,272.73,250.79Z" style="fill:url(#d)"/><path d="M247.6,258.64h4.09a0,0,0,0,1,0,0v23a1,1,0,0,1-1,1h-2.18a1,1,0,0,1-1-1v-23A0,0,0,0,1,247.6,258.64Z" style="fill:#43b3ff"/><path d="M249.65,244.06s-10.39,16.05,0,16.05S249.65,244.06,249.65,244.06Z" style="fill:#ffcd6d"/><path d="M249.65,253s-4.6,7.11,0,7.11S249.65,253,249.65,253Z" style="fill:url(#e)"/><path d="M205.7,250h4.09a0,0,0,0,1,0,0v23a1,1,0,0,1-1,1h-2.18a1,1,0,0,1-1-1V250A0,0,0,0,1,205.7,250Z" style="fill:#43b3ff"/><path d="M207.75,235.38s-10.4,16,0,16S207.75,235.38,207.75,235.38Z" style="fill:#ffcd6d"/><path d="M207.75,244.32s-4.6,7.1,0,7.1S207.75,244.32,207.75,244.32Z" style="fill:url(#f)"/><path d="M290.28,250h2.18a1,1,0,0,1,1,1v23a0,0,0,0,1,0,0h-4.09a0,0,0,0,1,0,0v-23A1,1,0,0,1,290.28,250Z" transform="translate(582.75 523.85) rotate(180)" style="fill:#43b3ff"/><path d="M291.38,235.38s10.39,16,0,16S291.38,235.38,291.38,235.38Z" style="fill:#ffcd6d"/><path d="M291.38,244.32s4.6,7.1,0,7.1S291.38,244.32,291.38,244.32Z" style="fill:url(#g)"/><g style="mix-blend-mode:multiply;opacity:0.25"><path d="M187.07,112.64v14.7h17v-14.7h4.59v35.14h-4.59V131.31h-17v16.47h-4.53V112.64Z" style="fill:#418caa"/><path d="M222.21,136.73l-3.64,11.05h-4.7l11.94-35.14h5.48l12,35.14h-4.85l-3.75-11.05Zm11.53-3.55-3.44-10.11c-.79-2.3-1.31-4.38-1.83-6.41h-.1c-.52,2.08-1.1,4.22-1.78,6.36l-3.44,10.16Z" style="fill:#418caa"/><path d="M248.44,113.06a52,52,0,0,1,8.71-.68c4.48,0,7.77,1,9.85,2.92a9.44,9.44,0,0,1,3.08,7.35,10.37,10.37,0,0,1-2.71,7.51c-2.4,2.55-6.31,3.86-10.74,3.86a15.07,15.07,0,0,1-3.65-.32v14.08h-4.54ZM253,130a15.19,15.19,0,0,0,3.75.37c5.48,0,8.81-2.66,8.81-7.51,0-4.64-3.28-6.88-8.29-6.88a19,19,0,0,0-4.27.36Z" style="fill:#418caa"/><path d="M276.18,113.06a52,52,0,0,1,8.71-.68c4.48,0,7.77,1,9.85,2.92a9.44,9.44,0,0,1,3.08,7.35,10.37,10.37,0,0,1-2.71,7.51c-2.4,2.55-6.31,3.86-10.74,3.86a15.07,15.07,0,0,1-3.65-.32v14.08h-4.54ZM280.72,130a15.19,15.19,0,0,0,3.75.37c5.47,0,8.81-2.66,8.81-7.51,0-4.64-3.28-6.88-8.29-6.88a19,19,0,0,0-4.27.36Z" style="fill:#418caa"/><path d="M311.27,147.78V132.87l-11.11-20.23h5.17l4.95,9.7c1.35,2.66,2.4,4.8,3.49,7.25h.11c1-2.3,2.19-4.59,3.54-7.25l5.06-9.7h5.16l-11.78,20.18v15Z" style="fill:#418caa"/><path d="M147.53,170.71a43.71,43.71,0,0,1,8.29-.73c4.53,0,7.45.78,9.64,2.55a7.36,7.36,0,0,1,2.92,6.21c0,3.39-2.24,6.36-5.94,7.71v.11c3.34.83,7.25,3.6,7.25,8.81a9.46,9.46,0,0,1-3,7c-2.45,2.24-6.41,3.28-12.14,3.28a54.83,54.83,0,0,1-7-.41Zm4.53,14.39h4.12c4.8,0,7.62-2.5,7.62-5.89,0-4.12-3.13-5.74-7.72-5.74a20,20,0,0,0-4,.31Zm0,16.84a23.83,23.83,0,0,0,3.81.21c4.69,0,9-1.72,9-6.83,0-4.8-4.12-6.78-9.07-6.78h-3.76Z" style="fill:#418caa"/><path d="M180.32,170.24v35.14h-4.53V170.24Z" style="fill:#418caa"/><path d="M188.25,170.71A47.17,47.17,0,0,1,197,170c4.84,0,8,.88,10.16,2.86a8.79,8.79,0,0,1,2.77,6.68,9.23,9.23,0,0,1-6.63,9v.15c2.71.94,4.33,3.44,5.17,7.09,1.14,4.91,2,8.29,2.71,9.65h-4.7c-.57-1-1.35-4-2.34-8.39-1-4.85-2.92-6.68-7-6.83h-4.28v15.22h-4.53Zm4.53,16h4.64c4.85,0,7.93-2.66,7.93-6.67,0-4.54-3.29-6.52-8.08-6.57a18.6,18.6,0,0,0-4.49.42Z" style="fill:#418caa"/><path d="M223.44,174.1H212.75v-3.86h26v3.86H228v31.28h-4.59Z" style="fill:#418caa"/><path d="M247.22,170.24v14.7h17v-14.7h4.59v35.14h-4.59V188.9h-17v16.48h-4.54V170.24Z" style="fill:#418caa"/><path d="M276.67,170.71a64.69,64.69,0,0,1,9.65-.73c6.52,0,11.16,1.51,14.23,4.38s5,6.93,5,12.61-1.78,10.43-5.06,13.67-8.71,5.05-15.54,5.05a73.71,73.71,0,0,1-8.24-.41Zm4.54,31.07a28.55,28.55,0,0,0,4.59.26c9.7,0,15-5.42,15-14.91.06-8.29-4.64-13.56-14.23-13.56a25.81,25.81,0,0,0-5.32.47Z" style="fill:#418caa"/><path d="M316.35,194.33l-3.65,11H308L320,170.24h5.47l12,35.14h-4.85l-3.76-11Zm11.52-3.55-3.44-10.11c-.78-2.3-1.3-4.38-1.82-6.42h-.11c-.52,2.09-1.09,4.23-1.77,6.36l-3.44,10.17Z" style="fill:#418caa"/><path d="M346.28,205.38V190.47l-11.11-20.23h5.17l5,9.7c1.35,2.66,2.4,4.79,3.49,7.24h.11c1-2.29,2.19-4.58,3.54-7.24l5.06-9.7h5.16l-11.78,20.18v15Z" style="fill:#418caa"/></g><path d="M187.07,110.75v14.7h17v-14.7h4.59v35.14h-4.59V129.42h-17v16.47h-4.53V110.75Z" style="fill:#fff"/><path d="M222.21,134.84l-3.64,11h-4.7l11.94-35.14h5.48l12,35.14h-4.85l-3.75-11Zm11.53-3.55-3.44-10.11c-.79-2.3-1.31-4.38-1.83-6.42h-.1c-.52,2.09-1.1,4.23-1.78,6.37l-3.44,10.16Z" style="fill:#fff"/><path d="M248.44,111.17a52,52,0,0,1,8.71-.68c4.48,0,7.77,1,9.85,2.92a9.44,9.44,0,0,1,3.08,7.35,10.37,10.37,0,0,1-2.71,7.51c-2.4,2.55-6.31,3.86-10.74,3.86a15.59,15.59,0,0,1-3.65-.32v14.08h-4.54ZM253,128.11a15.19,15.19,0,0,0,3.75.37c5.48,0,8.81-2.66,8.81-7.51,0-4.64-3.28-6.88-8.29-6.88a19,19,0,0,0-4.27.36Z" style="fill:#fff"/><path d="M276.18,111.17a52,52,0,0,1,8.71-.68c4.48,0,7.77,1,9.85,2.92a9.44,9.44,0,0,1,3.08,7.35,10.37,10.37,0,0,1-2.71,7.51c-2.4,2.55-6.31,3.86-10.74,3.86a15.59,15.59,0,0,1-3.65-.32v14.08h-4.54Zm4.54,16.94a15.19,15.19,0,0,0,3.75.37c5.47,0,8.81-2.66,8.81-7.51,0-4.64-3.28-6.88-8.29-6.88a19,19,0,0,0-4.27.36Z" style="fill:#fff"/><path d="M311.27,145.89V131l-11.11-20.23h5.17l4.95,9.7c1.35,2.66,2.4,4.79,3.49,7.24h.11c1-2.29,2.19-4.58,3.54-7.24l5.06-9.7h5.16l-11.78,20.18v15Z" style="fill:#fff"/><path d="M147.53,168.82a43.71,43.71,0,0,1,8.29-.73c4.53,0,7.45.78,9.64,2.55a7.36,7.36,0,0,1,2.92,6.21c0,3.38-2.24,6.36-5.94,7.71v.11c3.34.83,7.25,3.59,7.25,8.81a9.46,9.46,0,0,1-3,7c-2.45,2.24-6.41,3.28-12.14,3.28a52.65,52.65,0,0,1-7-.42Zm4.53,14.39h4.12c4.8,0,7.62-2.51,7.62-5.9,0-4.11-3.13-5.73-7.72-5.73a20,20,0,0,0-4,.31Zm0,16.84a25.08,25.08,0,0,0,3.81.21c4.69,0,9-1.72,9-6.83,0-4.8-4.12-6.78-9.07-6.78h-3.76Z" style="fill:#fff"/><path d="M180.32,168.35v35.14h-4.53V168.35Z" style="fill:#fff"/><path d="M188.25,168.82a47.17,47.17,0,0,1,8.71-.73c4.84,0,8,.88,10.16,2.86a8.79,8.79,0,0,1,2.77,6.68,9.24,9.24,0,0,1-6.63,9v.15c2.71.94,4.33,3.44,5.17,7.09,1.14,4.9,2,8.29,2.71,9.65h-4.7c-.57-1-1.35-4-2.34-8.4-1-4.84-2.92-6.67-7-6.83h-4.28v15.23h-4.53Zm4.53,16h4.64c4.85,0,7.93-2.66,7.93-6.67,0-4.54-3.29-6.52-8.08-6.57a18.6,18.6,0,0,0-4.49.42Z" style="fill:#fff"/><path d="M223.44,172.21H212.75v-3.86h26v3.86H228v31.28h-4.59Z" style="fill:#fff"/><path d="M247.22,168.35v14.7h17v-14.7h4.59v35.14h-4.59V187h-17v16.48h-4.54V168.35Z" style="fill:#fff"/><path d="M276.67,168.82a64.69,64.69,0,0,1,9.65-.73c6.52,0,11.16,1.51,14.23,4.38s5,6.93,5,12.61-1.78,10.43-5.06,13.66-8.71,5.06-15.54,5.06a71.15,71.15,0,0,1-8.24-.42Zm4.54,31.07a28.55,28.55,0,0,0,4.59.26c9.7,0,15-5.42,15-14.91.06-8.29-4.64-13.56-14.23-13.56a25.81,25.81,0,0,0-5.32.47Z" style="fill:#fff"/><path d="M316.35,192.44l-3.65,11.05H308L320,168.35h5.47l12,35.14h-4.85l-3.76-11.05Zm11.52-3.55-3.44-10.12c-.78-2.29-1.3-4.37-1.82-6.41h-.11c-.52,2.09-1.09,4.22-1.77,6.36l-3.44,10.17Z" style="fill:#fff"/><path d="M346.28,203.49V188.58l-11.11-20.23h5.17l5,9.69c1.35,2.66,2.4,4.8,3.49,7.25h.11c1-2.29,2.19-4.59,3.54-7.25l5.06-9.69h5.16l-11.78,20.17v15Z" style="fill:#fff"/><path d="M388.47,189.62a.41.41,0,0,0-.22.21c-.41,1.2,7.76,6.66,18.84,10.42a81.34,81.34,0,0,0,8.9,2.46l11.75-62.51Z" style="fill:#4080ff"/><path d="M428.39,203.39v-.08h0l-.65-63.1L416,202.71c7,1.49,12.1,1.58,12.39.71v0Z" style="fill:#2167d8"/><g style="clip-path:url(#h)"><polygon points="432.79 201.25 386.01 197.95 386.88 195.38 433.67 198.67 432.79 201.25" style="fill:#fff"/><polygon points="435.83 192.29 389.05 188.99 389.92 186.42 436.7 189.71 435.83 192.29" style="fill:#fff"/><polygon points="438.87 183.33 392.08 180.03 392.95 177.46 439.74 180.75 438.87 183.33" style="fill:#fff"/><polygon points="441.9 174.37 395.12 171.08 395.99 168.5 442.77 171.8 441.9 174.37" style="fill:#fff"/><polygon points="444.94 165.41 398.15 162.12 399.02 159.54 445.81 162.84 444.94 165.41" style="fill:#fff"/><polygon points="447.97 156.46 401.19 153.16 402.06 150.59 448.85 153.88 447.97 156.46" style="fill:#fff"/><polygon points="451.01 147.5 404.22 144.2 405.1 141.63 451.88 144.92 451.01 147.5" style="fill:#fff"/></g><path d="M430.1,133.84l-.05,4a.3.3,0,0,0,.2.28l3.82,1.29a.29.29,0,0,1,0,.56l-3.85,1.2a.28.28,0,0,0-.2.27l-.06,4a.29.29,0,0,1-.53.16l-2.33-3.29a.28.28,0,0,0-.32-.11l-3.85,1.2a.3.3,0,0,1-.33-.46l2.41-3.23a.3.3,0,0,0,0-.35l-2.33-3.29a.29.29,0,0,1,.33-.45l3.82,1.3a.29.29,0,0,0,.33-.1l2.41-3.24A.3.3,0,0,1,430.1,133.84Z" style="fill:#fff"/><path d="M120.31,204a.37.37,0,0,1,.22.2c.41,1.21-7.75,6.67-18.83,10.43a81.31,81.31,0,0,1-8.91,2.45L81,154.56Z" style="fill:#4080ff"/><path d="M80.39,217.75v-.08h0L81,154.56l11.75,62.51c-7,1.5-12.09,1.59-12.39.72v0Z" style="fill:#2167d8"/><g style="clip-path:url(#i)"><polygon points="75.99 215.61 122.77 212.32 121.9 209.74 75.12 213.04 75.99 215.61" style="fill:#fff"/><polygon points="72.95 206.66 119.74 203.36 118.86 200.78 72.08 204.08 72.95 206.66" style="fill:#fff"/><polygon points="69.92 197.7 116.7 194.4 115.83 191.82 69.05 195.12 69.92 197.7" style="fill:#fff"/><polygon points="66.88 188.74 113.67 185.44 112.79 182.87 66.01 186.16 66.88 188.74" style="fill:#fff"/><polygon points="63.85 179.78 110.63 176.48 109.76 173.91 62.97 177.21 63.85 179.78" style="fill:#fff"/><polygon points="60.81 170.82 107.59 167.53 106.72 164.95 59.94 168.25 60.81 170.82" style="fill:#fff"/><polygon points="57.77 161.86 104.56 158.57 103.69 155.99 56.9 159.29 57.77 161.86" style="fill:#fff"/></g><path d="M78.68,148.21l0,4a.29.29,0,0,1-.2.28l-3.82,1.3a.29.29,0,0,0,0,.56l3.85,1.19a.3.3,0,0,1,.21.28l0,4a.29.29,0,0,0,.53.17l2.33-3.29a.28.28,0,0,1,.33-.11l3.85,1.19a.29.29,0,0,0,.32-.45l-2.41-3.23a.3.3,0,0,1,0-.35l2.33-3.29a.29.29,0,0,0-.33-.45L82,151.37a.3.3,0,0,1-.33-.11L79.21,148A.3.3,0,0,0,78.68,148.21Z" style="fill:#fff"/><path d="M406.49,280.18a35.72,35.72,0,0,1,4.33-16.39c6.11-10.81,7.32-19,7.27-23.94-.06-5.35-1.57-8.19-1.59-8.22l1.31-.72c.07.13,1.69,3.12,1.77,8.79.08,5.17-1.15,13.66-7.46,24.83-4.71,8.33-4.7,18.3-3.41,26.43a.73.73,0,0,1-.62.85h0a.75.75,0,0,1-.86-.63A56.14,56.14,0,0,1,406.49,280.18Z" style="fill:url(#j)"/><path d="M435,186.18a22.05,22.05,0,0,1,4,3.56,23.9,23.9,0,0,1,5.06,9.55,26,26,0,0,1,.75,9.48c-.07.59-.14,1.18-.24,1.77a26.49,26.49,0,0,1-2.71,7.92,24.39,24.39,0,0,1-9.17,9.6A21.16,21.16,0,0,1,421.32,231C441.91,216.28,438.82,196.8,435,186.18Z" style="fill:#e89e36"/><path d="M400.5,211.23a26.51,26.51,0,0,1,.12-8.28c.1-.54.21-1.08.34-1.61a25.9,25.9,0,0,1,3.78-8.62,24.08,24.08,0,0,1,7.87-7.35,21,21,0,0,1,14.1-2.58,20.65,20.65,0,0,1,8.25,3.39c3.86,10.62,7,30.1-13.64,44.79.11,2,.17,3.75.17,3.75l-1.89-.32-.36-1.64-1.6,2.2-1.18-.21-.15-2.39-.49.71-.77,1.44-1-.18,1.79-4.27a21.31,21.31,0,0,1-10.18-7A24.48,24.48,0,0,1,400.5,211.23Z" style="fill:#ffcd6d"/><path d="M426,186.67a1.09,1.09,0,0,0-1.07-.65,22,22,0,0,0-14.45,6.73,18.59,18.59,0,0,0-5.2,14.2,1.08,1.08,0,1,0,2.15-.16A16.44,16.44,0,0,1,412,194.24a19.8,19.8,0,0,1,13-6.06,1.07,1.07,0,0,0,1-1.16A1.05,1.05,0,0,0,426,186.67Z" style="fill:#fde9df"/><path d="M143.35,146.3a25.12,25.12,0,0,0-3-11.56c-4.31-7.63-5.17-13.39-5.13-16.89a13.52,13.52,0,0,1,1.12-5.8l-.92-.51a14.1,14.1,0,0,0-1.25,6.21c-.06,3.64.81,9.63,5.26,17.51,3.32,5.88,3.32,12.91,2.41,18.65a.52.52,0,0,0,.43.6h0a.54.54,0,0,0,.61-.45A39.59,39.59,0,0,0,143.35,146.3Z" style="fill:url(#k)"/><path d="M123.27,80a15.54,15.54,0,0,0-2.81,2.51,17,17,0,0,0-3.57,6.73,18.15,18.15,0,0,0-.52,6.69c0,.42.09.84.17,1.25a18.12,18.12,0,0,0,1.91,5.59,17.14,17.14,0,0,0,6.46,6.77,15,15,0,0,0,8,2.06C118.37,101.22,120.55,87.48,123.27,80Z" style="fill:#e89e36"/><path d="M147.58,97.66a18.5,18.5,0,0,0-.09-5.84c-.06-.39-.15-.77-.23-1.14a18.44,18.44,0,0,0-2.67-6.08A16.81,16.81,0,0,0,139,79.42a14.77,14.77,0,0,0-9.95-1.82A14.43,14.43,0,0,0,123.27,80c-2.72,7.49-4.9,21.23,9.62,31.6-.08,1.38-.12,2.64-.12,2.64l1.33-.23.26-1.15,1.13,1.55.83-.15.11-1.68.35.49.54,1L138,114l-1.27-3A15,15,0,0,0,144,106,17.2,17.2,0,0,0,147.58,97.66Z" style="fill:#ffcd6d"/><path d="M129.61,80.34a.75.75,0,0,1,.76-.46,15.42,15.42,0,0,1,10.19,4.74,13.11,13.11,0,0,1,3.67,10,.76.76,0,0,1-.82.7.75.75,0,0,1-.7-.81,11.61,11.61,0,0,0-3.26-8.86,14,14,0,0,0-9.19-4.27.77.77,0,0,1-.71-.82A.84.84,0,0,1,129.61,80.34Z" style="fill:#fde9df"/><path d="M354.4,148a28.26,28.26,0,0,1,2.77-13.07c4.39-8.75,5-15.23,4.8-19.13a15.15,15.15,0,0,0-1.56-6.41l1-.62a15.71,15.71,0,0,1,1.73,6.86c.26,4.06-.38,10.79-4.91,19.83-3.39,6.74-3,14.58-1.67,20.93a.59.59,0,0,1-.45.7h0a.6.6,0,0,1-.71-.46A44.69,44.69,0,0,1,354.4,148Z" style="fill:url(#l)"/><path d="M380.81,82.87a19,19,0,0,0-4.36-7.32,16.63,16.63,0,0,0-9.89-5,16.14,16.14,0,0,0-2.77-.09A16.67,16.67,0,0,1,369,74.13a19,19,0,0,1,4.36,7.32,20.59,20.59,0,0,1,.95,7.44c0,.46-.06.93-.12,1.4a20.67,20.67,0,0,1-1.83,6.34,19.21,19.21,0,0,1-6.84,7.91,16.66,16.66,0,0,1-8.36,2.7,16.76,16.76,0,0,0,2.63.94l-1.25,3.43.81.1.55-1.16.36-.57.22,1.87.93.12,1.17-1.8.35,1.28,1.5.18s-.11-1.41-.28-2.94h.06A16.81,16.81,0,0,0,373,106,19.2,19.2,0,0,0,379.81,98a20.81,20.81,0,0,0,1.83-6.33c.05-.47.09-.94.12-1.4A20.56,20.56,0,0,0,380.81,82.87Z" style="fill:#2167d8"/><path d="M372.38,96.63a20.67,20.67,0,0,0,1.83-6.34c.06-.47.09-.94.12-1.4a20.59,20.59,0,0,0-.95-7.44A19,19,0,0,0,369,74.13a16.67,16.67,0,0,0-5.23-3.67,16.73,16.73,0,0,0-8.24,2.67,19,19,0,0,0-5.91,6.09A20.48,20.48,0,0,0,347,86.14c-.08.43-.15.85-.2,1.29A20.53,20.53,0,0,0,347,94a19.21,19.21,0,0,0,4.5,9.15,17,17,0,0,0,5.65,4.14,16.66,16.66,0,0,0,8.36-2.7A19.21,19.21,0,0,0,372.38,96.63Z" style="fill:#4080ff"/><path d="M362.31,74.19a.86.86,0,0,0-.94-.31,17.25,17.25,0,0,0-9.94,7.68,14.65,14.65,0,0,0-1.54,11.81.85.85,0,1,0,1.63-.5,13,13,0,0,1,1.38-10.45,15.57,15.57,0,0,1,9-6.91.86.86,0,0,0,.57-1.06A1.05,1.05,0,0,0,362.31,74.19Z" style="fill:#fde9df"/><path d="M90.32,304a26.19,26.19,0,0,0-4.7-11.53c-5.47-7.3-7.13-13.14-7.56-16.76a14.1,14.1,0,0,1,.38-6.14l-1-.4a14.55,14.55,0,0,0-.46,6.57c.43,3.77,2.13,9.85,7.78,17.39,4.22,5.62,5.16,12.89,5,18.93a.54.54,0,0,0,.53.57h0a.56.56,0,0,0,.57-.54A42,42,0,0,0,90.32,304Z" style="fill:url(#m)"/><path d="M80.49,267.06A15.6,15.6,0,0,1,72,266a17.86,17.86,0,0,1-7.58-6.13,19.44,19.44,0,0,1-2.73-5.51c-.13-.42-.24-.84-.34-1.27a19,19,0,0,1-.35-7,17.69,17.69,0,0,1,2.78-7.43,15.73,15.73,0,0,1,3.92-4.05c-.45.1-.89.21-1.33.35a15.07,15.07,0,0,0-2.82,1.21,15.65,15.65,0,0,0-5.44,5,17.71,17.71,0,0,0-2.79,7.43,19.24,19.24,0,0,0,.36,7c.1.43.21.85.34,1.27a19.15,19.15,0,0,0,2.72,5.51,18,18,0,0,0,7.59,6.13,15.48,15.48,0,0,0,8.46,1.06h.06c.1,1.43.23,2.74.23,2.74l1.34-.41.11-1.23,1.37,1.45.84-.26-.11-1.75.43.46.69,1,.73-.23-1.71-2.94a16.12,16.12,0,0,0,1.78-1l0-.35Z" style="fill:#2167d8"/><path d="M85.55,262.36a17.94,17.94,0,0,0,2.62-9.14,19.5,19.5,0,0,0-.87-6c-.12-.39-.26-.77-.4-1.14a19,19,0,0,0-3.56-5.92,17.83,17.83,0,0,0-6.44-4.62,15.55,15.55,0,0,0-9.18-.89,15.73,15.73,0,0,0-3.92,4.05A17.69,17.69,0,0,0,61,246.11a19,19,0,0,0,.35,7c.1.43.21.85.34,1.27a19.44,19.44,0,0,0,2.73,5.51A17.86,17.86,0,0,0,72,266a15.6,15.6,0,0,0,8.47,1.06h.05l0,.35A15.7,15.7,0,0,0,85.55,262.36Z" style="fill:#4080ff"/><path d="M70.88,237.62a.81.81,0,0,1,.81-.45,16.17,16.17,0,0,1,10.39,5.41,13.62,13.62,0,0,1,3.36,10.58.79.79,0,0,1-.88.7.8.8,0,0,1-.7-.88,12,12,0,0,0-3-9.36,14.57,14.57,0,0,0-9.37-4.87.79.79,0,0,1-.7-.88A1,1,0,0,1,70.88,237.62Z" style="fill:#fde9df"/><path d="M161.49,269.35a26,26,0,0,0-2.84-12c-4.25-8-5-14-4.85-17.57a14.08,14.08,0,0,1,1.31-5.95l-.94-.55a14.69,14.69,0,0,0-1.45,6.37c-.16,3.76.58,10,5,18.22,3.27,6.15,3.08,13.41,2,19.3a.52.52,0,0,0,.43.63h0a.54.54,0,0,0,.64-.44A41.12,41.12,0,0,0,161.49,269.35Z" style="fill:url(#n)"/><path d="M142.52,200.37a16.18,16.18,0,0,0-3,2.52,17.56,17.56,0,0,0-3.87,6.86,18.94,18.94,0,0,0-.72,6.89c0,.43.08.86.15,1.29a18.79,18.79,0,0,0,1.82,5.81,17.72,17.72,0,0,0,6.5,7.17,15.46,15.46,0,0,0,8.18,2.33C136.9,222.16,139.51,208,142.52,200.37Z" style="fill:#e89e36"/><path d="M167.14,219.26a19.31,19.31,0,0,0,.07-6c-.06-.4-.14-.8-.22-1.19a18.75,18.75,0,0,0-2.59-6.34,17.36,17.36,0,0,0-5.59-5.5,15.09,15.09,0,0,0-16.29.17c-3,7.66-5.62,21.79,9.1,32.87-.12,1.42-.2,2.73-.2,2.73l1.38-.21.3-1.18,1.12,1.63.86-.13.16-1.73.34.52.54,1.06.74-.11-1.22-3.14a15.51,15.51,0,0,0,7.54-4.88A17.79,17.79,0,0,0,167.14,219.26Z" style="fill:#ffcd6d"/><path d="M149.06,200.9a.76.76,0,0,1,.79-.45,15.94,15.94,0,0,1,10.39,5.17,13.51,13.51,0,0,1,3.53,10.43.79.79,0,0,1-1.57-.16,11.93,11.93,0,0,0-3.13-9.22A14.42,14.42,0,0,0,149.7,202a.79.79,0,0,1-.71-.86A.72.72,0,0,1,149.06,200.9Z" style="fill:#fde9df"/><path d="M334.81,251.34a19.54,19.54,0,0,1,3.27-8.71c3.93-5.57,5-10,5.29-12.67a10.49,10.49,0,0,0-.42-4.58l.76-.32a11,11,0,0,1,.48,4.9c-.24,2.82-1.38,7.39-5.44,13.14-3,4.29-3.58,9.73-3.32,14.24a.42.42,0,0,1-.39.44h0a.42.42,0,0,1-.43-.4A30.63,30.63,0,0,1,334.81,251.34Z" style="fill:url(#o)"/><path d="M359.75,209.24a13,13,0,0,0-2.24-5.49,11.62,11.62,0,0,0-4.16-3.62,11,11,0,0,0-2.13-.85,11.41,11.41,0,0,0-1.89-.35,11.77,11.77,0,0,1,3.22,3.07,13.24,13.24,0,0,1,2.23,5.49,14.14,14.14,0,0,1-.11,5.22c-.07.32-.14.64-.23,1a14.58,14.58,0,0,1-1.92,4.17,13.4,13.4,0,0,1-5.53,4.74,11.64,11.64,0,0,1-6,1,11.69,11.69,0,0,0,1.71.92l-1.22,2.23.55.15.5-.74.31-.36-.05,1.32.63.17,1-1.11.1.91,1,.29s.06-1,.11-2.06h0a11.63,11.63,0,0,0,6.3-1,13.37,13.37,0,0,0,5.53-4.73,14.58,14.58,0,0,0,1.92-4.17c.08-.32.16-.64.22-1A14.15,14.15,0,0,0,359.75,209.24Z" style="fill:#2167d8"/><path d="M352.52,217.84a14.58,14.58,0,0,0,1.92-4.17c.09-.32.16-.64.23-1a14.14,14.14,0,0,0,.11-5.22,13.24,13.24,0,0,0-2.23-5.49,11.77,11.77,0,0,0-3.22-3.07,11.66,11.66,0,0,0-5.95,1,13.25,13.25,0,0,0-4.7,3.58,14.28,14.28,0,0,0-2.54,4.5c-.1.28-.19.57-.27.86a14.38,14.38,0,0,0-.53,4.51,13.43,13.43,0,0,0,2.16,6.77,11.58,11.58,0,0,0,3.46,3.44,11.64,11.64,0,0,0,6-1A13.4,13.4,0,0,0,352.52,217.84Z" style="fill:#4080ff"/><path d="M347.92,201.35a.61.61,0,0,0-.61-.32,12.08,12.08,0,0,0-7.65,4.26,10.21,10.21,0,0,0-2.28,8,.59.59,0,0,0,1.17-.17,9,9,0,0,1,2-7.05,10.86,10.86,0,0,1,6.9-3.83.59.59,0,0,0,.5-.67A.6.6,0,0,0,347.92,201.35Z" style="fill:#fde9df"/><path d="M406.35,313.72a13.29,13.29,0,0,1-3,.59l-3.15-1.82a12.29,12.29,0,0,1,.69-3.7A6.12,6.12,0,0,1,406.35,313.72Z" style="fill:#2167d8"/><path d="M404.7,307.48s1.39-1.32,2.6-.32-.09,3.13-.09,3.13,3.8-.25,2,1.78a6.56,6.56,0,0,1-2.84,1.65,6.12,6.12,0,0,0-5.49-4.93c.73-2.2,1.88-4.21,2.73-4.14C404.94,304.76,404.7,307.48,404.7,307.48Z" style="fill:#4080ff"/><path d="M391,330.78c-.72,2-1.75,3.62-2.52,3.56-1.35-.11-1.1-2.83-1.1-2.83s-1.4,1.32-2.61.32.09-3.13.09-3.13-3.79.25-2-1.78a7.87,7.87,0,0,1,4.15-2A7.49,7.49,0,0,0,391,330.78Z" style="fill:#4080ff"/><path d="M391.87,326.5a12.94,12.94,0,0,1-.9,4.28,7.49,7.49,0,0,1-4-5.86,13.08,13.08,0,0,1,1.72-.24Z" style="fill:#2167d8"/><polygon points="403.28 311.63 403.28 311.63 403.28 311.63 403.28 311.63" style="fill:none"/><path d="M394,316a12.2,12.2,0,0,1,9.25-4.35h0l0,.14.07-.12c2.53,2.38,2.19,7.59-.91,12.08-3.29,4.78-8.46,6.94-11.54,4.81a4.44,4.44,0,0,1-1.44-1.63C389.71,325.05,390.78,319.76,394,316Z" style="fill:#4080ff"/><path d="M403.28,311.63l0,0-.07.12Z" style="fill:#504b66"/><path d="M391.24,316c3.3-4.78,8.47-6.93,11.55-4.81a4.74,4.74,0,0,1,.49.4A12.2,12.2,0,0,0,394,316c-3.25,3.78-4.32,9.07-4.61,10.93C388,324.24,388.6,319.88,391.24,316Z" style="fill:#2167d8"/><g style="clip-path:url(#p)"><polygon points="412.48 322.88 399.75 300.91 398.93 301.63 411.65 323.6 412.48 322.88" style="fill:#fff"/><polygon points="409.6 325.37 396.88 303.4 396.05 304.12 408.77 326.09 409.6 325.37" style="fill:#fff"/><polygon points="406.73 327.87 394 305.9 393.18 306.62 405.9 328.58 406.73 327.87" style="fill:#fff"/><polygon points="403.85 330.36 391.13 308.39 390.3 309.11 403.03 331.08 403.85 330.36" style="fill:#fff"/><polygon points="400.98 332.85 388.25 310.89 387.43 311.6 400.15 333.57 400.98 332.85" style="fill:#fff"/><polygon points="398.1 335.35 385.38 313.38 384.55 314.1 397.28 336.06 398.1 335.35" style="fill:#fff"/><polygon points="395.23 337.84 382.5 315.87 381.68 316.59 394.4 338.56 395.23 337.84" style="fill:#fff"/></g><path d="M124.76,322.28a8.53,8.53,0,0,1,2-.3l2,1.27a8,8,0,0,1-.55,2.38A4,4,0,0,1,124.76,322.28Z" style="fill:#2167d8"/><path d="M125.66,326.38s-.94.82-1.7.14.14-2,.14-2-2.47.05-1.23-1.21a4,4,0,0,1,1.89-1,4,4,0,0,0,3.43,3.35c-.53,1.41-1.34,2.69-1.89,2.62C125.42,328.15,125.66,326.38,125.66,326.38Z" style="fill:#4080ff"/><path d="M135.23,311.61c.52-1.26,1.24-2.31,1.74-2.25.87.11.64,1.87.64,1.87s.94-.81,1.7-.13-.15,2-.15,2,2.48-.06,1.24,1.21a5.06,5.06,0,0,1-2.75,1.19A4.87,4.87,0,0,0,135.23,311.61Z" style="fill:#4080ff"/><path d="M134.53,314.37a8.43,8.43,0,0,1,.7-2.76,4.87,4.87,0,0,1,2.42,3.92,9.31,9.31,0,0,1-1.12.11Z" style="fill:#2167d8"/><polygon points="126.69 323.72 126.69 323.72 126.69 323.72 126.69 323.72" style="fill:none"/><path d="M132.83,321.15a7.89,7.89,0,0,1-6.14,2.57h0l0-.09,0,.08c-1.57-1.62-1.21-5,.93-7.83,2.27-3,5.69-4.28,7.64-2.82a3,3,0,0,1,.89,1.11A15.14,15.14,0,0,1,132.83,321.15Z" style="fill:#4080ff"/><path d="M126.69,323.72h0l0-.08Z" style="fill:#504b66"/><path d="M134.64,321.19c-2.27,3-5.69,4.27-7.64,2.81l-.31-.28a7.89,7.89,0,0,0,6.14-2.57,15.14,15.14,0,0,0,3.3-7C137,315.94,136.47,318.76,134.64,321.19Z" style="fill:#2167d8"/><g style="clip-path:url(#q)"><polygon points="121.03 316.15 128.69 330.79 129.25 330.35 121.58 315.71 121.03 316.15" style="fill:#fff"/><polygon points="122.96 314.61 130.63 329.25 131.19 328.81 123.52 314.17 122.96 314.61" style="fill:#fff"/><polygon points="124.9 313.07 132.57 327.71 133.13 327.26 125.46 312.62 124.9 313.07" style="fill:#fff"/><polygon points="126.84 311.52 134.51 326.16 135.06 325.72 127.4 311.08 126.84 311.52" style="fill:#fff"/><polygon points="128.78 309.98 136.45 324.62 137 324.18 129.34 309.54 128.78 309.98" style="fill:#fff"/><polygon points="130.72 308.44 138.38 323.08 138.94 322.64 131.27 308 130.72 308.44" style="fill:#fff"/><polygon points="132.66 306.9 140.32 321.54 140.88 321.09 133.21 306.45 132.66 306.9" style="fill:#fff"/></g><path d="M109.25,270.94a9,9,0,0,1,.06,2l-1.5,1.84a7.68,7.68,0,0,1-2.32-.83A4,4,0,0,1,109.25,270.94Z" style="fill:#e89e36"/><path d="M105,271.36s-.7-1,.07-1.72,2,.39,2,.39.23-2.48,1.35-1.09a4.21,4.21,0,0,1,.78,2,4,4,0,0,0-3.76,3c-1.34-.7-2.52-1.65-2.39-2.19C103.31,270.92,105,271.36,105,271.36Z" style="fill:#ffcd6d"/><path d="M118.66,282.65c1.19.67,2.16,1.51,2,2-.21.86-2,.42-2,.42s.71,1-.06,1.72-2-.39-2-.39-.24,2.48-1.36,1.09a5.13,5.13,0,0,1-.86-2.89A4.88,4.88,0,0,0,118.66,282.65Z" style="fill:#ffcd6d"/><path d="M116,281.63a8.49,8.49,0,0,1,2.67,1,4.88,4.88,0,0,1-4.2,2,9.32,9.32,0,0,1,0-1.13Z" style="fill:#e89e36"/><polygon points="107.57 272.7 107.58 272.7 107.57 272.7 107.57 272.7" style="fill:none"/><path d="M109.42,279.14a8,8,0,0,1-1.85-6.44h0l.09.05-.07-.06c1.8-1.39,5.13-.62,7.71,1.84,2.74,2.63,3.6,6.19,1.9,8a3,3,0,0,1-1.2.76A15.2,15.2,0,0,1,109.42,279.14Z" style="fill:#ffcd6d"/><path d="M107.57,272.7h0l.07.06Z" style="fill:#504b66"/><path d="M109.17,280.94c-2.74-2.63-3.6-6.19-1.9-8a4,4,0,0,1,.3-.28,8,8,0,0,0,1.85,6.44,15.2,15.2,0,0,0,6.58,4.11C114.12,283.91,111.37,283.05,109.17,280.94Z" style="fill:#e89e36"/><g style="clip-path:url(#r)"><polygon points="115.8 267.94 100.28 273.87 100.66 274.48 116.17 268.55 115.8 267.94" style="fill:#fff"/><polygon points="117.11 270.06 101.59 275.99 101.97 276.59 117.49 270.67 117.11 270.06" style="fill:#fff"/><polygon points="118.42 272.17 102.91 278.1 103.28 278.71 118.8 272.78 118.42 272.17" style="fill:#fff"/><polygon points="119.73 274.29 104.22 280.22 104.59 280.83 120.11 274.9 119.73 274.29" style="fill:#fff"/><polygon points="121.04 276.4 105.53 282.33 105.91 282.94 121.42 277.01 121.04 276.4" style="fill:#fff"/><polygon points="122.35 278.52 106.84 284.45 107.22 285.06 122.73 279.13 122.35 278.52" style="fill:#fff"/><polygon points="123.66 280.64 108.15 286.57 108.53 287.17 124.04 281.25 123.66 280.64" style="fill:#fff"/></g><path d="M117.8,171.14a11.6,11.6,0,0,1,2.1-1.58l3.09.21a10.41,10.41,0,0,1,.86,3.08A5.21,5.21,0,0,1,117.8,171.14Z" style="fill:#e89e36"/><path d="M121.41,175.3s-.58,1.52-1.88,1.21-1.1-2.42-1.1-2.42-2.82,1.61-2.18-.62a5.44,5.44,0,0,1,1.55-2.33,5.21,5.21,0,0,0,6,1.71c.26,2,.13,3.93-.54,4.2C122.23,177.47,121.41,175.3,121.41,175.3Z" style="fill:#ffcd6d"/><path d="M123.18,152.32c-.18-1.77,0-3.43.6-3.67,1.08-.42,1.91,1.75,1.91,1.75s.57-1.53,1.87-1.22,1.1,2.43,1.1,2.43,2.82-1.61,2.18.62a6.69,6.69,0,0,1-2.42,3.09A6.37,6.37,0,0,0,123.18,152.32Z" style="fill:#ffcd6d"/><path d="M124.1,155.93a11.28,11.28,0,0,1-.92-3.61,6.37,6.37,0,0,1,5.24,3,10.68,10.68,0,0,1-1.23.82Z" style="fill:#e89e36"/><polygon points="120.93 171.59 120.93 171.59 120.93 171.59 120.93 171.59" style="fill:none"/><path d="M126.39,164.79a10.42,10.42,0,0,1-5.46,6.8h0l0-.13v.12c-2.82-.87-4.52-5-3.83-9.59.73-4.89,3.88-8.47,7-8a3.86,3.86,0,0,1,1.71.71C126.3,156.23,127.46,160.69,126.39,164.79Z" style="fill:#ffcd6d"/><path d="M120.93,171.59h0v-.12Z" style="fill:#504b66"/><path d="M128.5,163.7c-.74,4.9-3.89,8.48-7,8a4.54,4.54,0,0,1-.53-.12,10.42,10.42,0,0,0,5.46-6.8c1.07-4.1-.09-8.56-.57-10.09C127.93,156.2,129.08,159.77,128.5,163.7Z" style="fill:#e89e36"/><g style="clip-path:url(#s)"><polygon points="109.68 166.42 127.65 178.47 128.01 177.61 110.05 165.56 109.68 166.42" style="fill:#fff"/><polygon points="110.95 163.43 128.92 175.49 129.28 174.63 111.31 162.58 110.95 163.43" style="fill:#fff"/><polygon points="112.21 160.45 130.18 172.5 130.55 171.64 112.58 159.59 112.21 160.45" style="fill:#fff"/><polygon points="113.48 157.46 131.45 169.51 131.81 168.66 113.84 156.6 113.48 157.46" style="fill:#fff"/><polygon points="114.75 154.48 132.72 166.53 133.08 165.67 115.11 153.62 114.75 154.48" style="fill:#fff"/><polygon points="116.01 151.49 133.98 163.54 134.34 162.69 116.38 150.63 116.01 151.49" style="fill:#fff"/><polygon points="117.28 148.51 135.25 160.56 135.61 159.7 117.64 147.65 117.28 148.51" style="fill:#fff"/></g><path d="M339.75,145.27a10.13,10.13,0,0,1-2.41.11l-2.24-1.75a9.22,9.22,0,0,1,.95-2.79A4.77,4.77,0,0,1,339.75,145.27Z" style="fill:#e89e36"/><path d="M339.17,140.24s1.22-.86,2.05,0-.42,2.41-.42,2.41,3,.23,1.34,1.6a5,5,0,0,1-2.39,1,4.77,4.77,0,0,0-3.7-4.43c.81-1.63,1.93-3.06,2.58-2.91C339.66,138.16,339.17,140.24,339.17,140.24Z" style="fill:#ffcd6d"/><path d="M325.93,156.78c-.78,1.44-1.76,2.62-2.36,2.48-1-.23-.54-2.32-.54-2.32s-1.22.87-2,0,.42-2.41.42-2.41-3-.24-1.34-1.6a6.06,6.06,0,0,1,3.44-1.09A5.83,5.83,0,0,0,325.93,156.78Z" style="fill:#ffcd6d"/><path d="M327.1,153.56a10.21,10.21,0,0,1-1.17,3.22,5.83,5.83,0,0,1-2.43-5,10.06,10.06,0,0,1,1.36,0Z" style="fill:#e89e36"/><polygon points="337.61 143.3 337.61 143.31 337.61 143.31 337.61 143.3" style="fill:none"/><path d="M329.94,145.65a9.6,9.6,0,0,1,7.67-2.35h0l-.05.1.07-.08c1.69,2.12.85,6.12-2.05,9.26-3.09,3.34-7.34,4.44-9.49,2.45a3.61,3.61,0,0,1-.94-1.43A18.26,18.26,0,0,1,329.94,145.65Z" style="fill:#ffcd6d"/><path d="M337.61,143.31l0,0-.07.08Z" style="fill:#504b66"/><path d="M327.78,145.38c3.09-3.34,7.34-4.43,9.49-2.44.12.11.23.24.34.36a9.6,9.6,0,0,0-7.67,2.35,18.26,18.26,0,0,0-4.79,8C324.33,151.38,325.3,148.07,327.78,145.38Z" style="fill:#e89e36"/><g style="clip-path:url(#t)"><polygon points="343.48 153.05 336.06 134.6 335.34 135.06 342.76 153.52 343.48 153.05" style="fill:#fff"/><polygon points="340.98 154.67 333.56 136.21 332.84 136.68 340.25 155.13 340.98 154.67" style="fill:#fff"/><polygon points="338.47 156.28 331.05 137.83 330.33 138.29 337.75 156.74 338.47 156.28" style="fill:#fff"/><polygon points="335.96 157.89 328.54 139.44 327.82 139.9 335.24 158.36 335.96 157.89" style="fill:#fff"/><polygon points="333.45 159.51 326.04 141.05 325.32 141.52 332.73 159.97 333.45 159.51" style="fill:#fff"/><polygon points="330.95 161.12 323.53 142.66 322.81 143.13 330.23 161.58 330.95 161.12" style="fill:#fff"/><polygon points="328.44 162.73 321.02 144.28 320.3 144.74 327.72 163.2 328.44 162.73" style="fill:#fff"/></g><path d="M364.52,271.16a10.94,10.94,0,0,1,2.09-1.21l2.8.54a9.53,9.53,0,0,1,.44,2.91A4.79,4.79,0,0,1,364.52,271.16Z" style="fill:#e89e36"/><path d="M367.35,275.36s-.69,1.33-1.85.9-.73-2.34-.73-2.34-2.75,1.16-1.92-.81a5.06,5.06,0,0,1,1.67-1.95,4.79,4.79,0,0,0,5.33,2.24c0,1.81-.31,3.6-1,3.77C367.86,277.44,367.35,275.36,367.35,275.36Z" style="fill:#ffcd6d"/><path d="M371.53,254.59c0-1.64.36-3.13,1-3.29,1-.26,1.54,1.81,1.54,1.81s.7-1.33,1.85-.9.73,2.34.73,2.34,2.75-1.16,1.93.81A6.14,6.14,0,0,1,376,257.9,5.86,5.86,0,0,0,371.53,254.59Z" style="fill:#ffcd6d"/><path d="M372,258a10.11,10.11,0,0,1-.43-3.4A5.86,5.86,0,0,1,376,257.9a10.9,10.9,0,0,1-1.21.62Z" style="fill:#e89e36"/><polygon points="367.33 271.92 367.33 271.92 367.33 271.92 367.33 271.92" style="fill:none"/><path d="M373.07,266.33a9.54,9.54,0,0,1-5.74,5.59h0v-.11l0,.1c-2.48-1.11-3.56-5.05-2.43-9.17,1.21-4.39,4.49-7.31,7.31-6.53a3.62,3.62,0,0,1,1.49.84A18.21,18.21,0,0,1,373.07,266.33Z" style="fill:#ffcd6d"/><path d="M367.33,271.92h0l0-.1Z" style="fill:#504b66"/><path d="M375.11,265.57c-1.21,4.38-4.49,7.3-7.31,6.52a2.64,2.64,0,0,1-.47-.17,9.54,9.54,0,0,0,5.74-5.59,18.21,18.21,0,0,0,.6-9.28C375.43,258.65,376.08,262.05,375.11,265.57Z" style="fill:#e89e36"/><g style="clip-path:url(#u)"><polygon points="357.64 265.95 372.69 278.95 373.12 278.21 358.07 265.21 357.64 265.95" style="fill:#fff"/><polygon points="359.13 263.37 374.18 276.37 374.61 275.62 359.55 262.63 359.13 263.37" style="fill:#fff"/><polygon points="360.61 260.79 375.67 273.78 376.1 273.04 361.04 260.04 360.61 260.79" style="fill:#fff"/><polygon points="362.1 258.2 377.16 271.2 377.58 270.46 362.53 257.46 362.1 258.2" style="fill:#fff"/><polygon points="363.59 255.62 378.64 268.62 379.07 267.87 364.02 254.88 363.59 255.62" style="fill:#fff"/><polygon points="365.08 253.04 380.13 266.03 380.56 265.29 365.5 252.29 365.08 253.04" style="fill:#fff"/><polygon points="366.56 250.45 381.62 263.45 382.05 262.7 366.99 249.71 366.56 250.45" style="fill:#fff"/></g><path d="M221.56,101.82a9.56,9.56,0,0,1-.09,2.16l-1.75,1.87a8.69,8.69,0,0,1-2.43-1.07A4.3,4.3,0,0,1,221.56,101.82Z" style="fill:#2167d8"/><path d="M217,101.94s-.68-1.16.21-1.83,2.12.56,2.12.56.45-2.64,1.54-1.06a4.45,4.45,0,0,1,.68,2.21,4.3,4.3,0,0,0-4.27,3c-1.39-.85-2.58-2-2.4-2.54C215.19,101.33,217,101.94,217,101.94Z" style="fill:#4080ff"/><path d="M230.76,115.11c1.23.81,2.2,1.78,2,2.3-.29.91-2.11.3-2.11.3s.67,1.17-.21,1.84-2.12-.57-2.12-.57-.45,2.64-1.54,1.07a5.48,5.48,0,0,1-.7-3.17A5.26,5.26,0,0,0,230.76,115.11Z" style="fill:#4080ff"/><path d="M228,113.8a9,9,0,0,1,2.79,1.31,5.26,5.26,0,0,1-4.65,1.77,9.23,9.23,0,0,1,.11-1.21Z" style="fill:#2167d8"/><polygon points="219.63 103.58 219.63 103.58 219.63 103.58 219.63 103.58" style="fill:none"/><path d="M221.11,110.63a8.59,8.59,0,0,1-1.48-7h0l.09,0-.07-.07c2-1.34,5.55-.27,8.13,2.58,2.74,3,3.38,6.92,1.43,8.69a3.21,3.21,0,0,1-1.35.72A16.46,16.46,0,0,1,221.11,110.63Z" style="fill:#4080ff"/><path d="M219.63,103.58l0,0,.07.07Z" style="fill:#504b66"/><path d="M220.71,112.54c-2.75-3-3.39-6.92-1.44-8.69a2.42,2.42,0,0,1,.36-.27,8.59,8.59,0,0,0,1.48,7,16.46,16.46,0,0,0,6.75,4.92C225.8,116.11,222.91,115,220.71,112.54Z" style="fill:#2167d8"/><g style="clip-path:url(#v)"><polygon points="228.82 99.1 211.71 104.27 212.07 104.95 229.18 99.78 228.82 99.1" style="fill:#fff"/><polygon points="230.06 101.47 212.96 106.64 213.31 107.32 230.42 102.15 230.06 101.47" style="fill:#fff"/><polygon points="231.31 103.84 214.2 109.02 214.56 109.7 231.67 104.53 231.31 103.84" style="fill:#fff"/><polygon points="232.55 106.22 215.44 111.39 215.8 112.07 232.91 106.9 232.55 106.22" style="fill:#fff"/><polygon points="233.8 108.59 216.69 113.76 217.05 114.44 234.16 109.27 233.8 108.59" style="fill:#fff"/><polygon points="235.04 110.96 217.93 116.13 218.29 116.81 235.4 111.64 235.04 110.96" style="fill:#fff"/><polygon points="236.29 113.33 219.18 118.5 219.54 119.19 236.65 114.02 236.29 113.33" style="fill:#fff"/></g><ellipse cx="113.77" cy="395.52" rx="15.1" ry="3.31" style="fill:#55b9e5"/><ellipse cx="131" cy="418.17" rx="15.1" ry="3.31" style="fill:#55b9e5"/><ellipse cx="277.87" cy="449.36" rx="33.48" ry="7.33" style="fill:#55b9e5"/><path d="M399,420.23c0,2.84-10.53,5.14-23.51,5.14S352,423.07,352,420.23s10.53-5.15,23.52-5.15S399,417.38,399,420.23Z" style="fill:#55b9e5"/><path d="M413,390.34c0,1.83-6.78,3.31-15.15,3.31s-15.15-1.48-15.15-3.31,6.79-3.32,15.15-3.32S413,388.5,413,390.34Z" style="fill:#55b9e5"/><ellipse cx="177.91" cy="442.27" rx="44.85" ry="7.33" style="fill:#55b9e5"/><path d="M274.62,431.5a19.3,19.3,0,0,1,3,3.24l.16,5.17a17.15,17.15,0,0,1-5,1.93C270.63,436.75,272.67,433.38,274.62,431.5Z" style="fill:#e89e36"/><path d="M268.29,438.18s-2.64-.7-2.33-2.92,3.85-2.23,3.85-2.23-3.13-4.41.68-3.72a9.21,9.21,0,0,1,4.13,2.19c-1.95,1.88-4,5.25-1.87,10.34-3.21.76-6.51.87-7.07-.21C264.8,439.91,268.29,438.18,268.29,438.18Z" style="fill:#ffcd6d"/><path d="M306.78,437.39c2.91-.59,5.7-.59,6.2.4.88,1.71-2.6,3.45-2.6,3.45s2.63.7,2.33,2.92-3.86,2.22-3.86,2.22,3.14,4.42-.68,3.73c-2.19-.4-4.2-2.13-5.52-3.53C306.36,443.34,307,439.92,306.78,437.39Z" style="fill:#ffcd6d"/><path d="M300.92,439.51a18.08,18.08,0,0,1,5.86-2.12c.23,2.53-.42,5.95-4.13,9.19a19.34,19.34,0,0,1-1.57-1.9Z" style="fill:#e89e36"/><polygon points="274.37 436.79 274.37 436.79 274.37 436.79 274.37 436.79" style="fill:none"/><path d="M286.56,444.75a17.4,17.4,0,0,1-12.19-8h0l.21-.06h-.2c1-4.83,7.56-8.32,15.32-7.93,8.25.42,14.73,5.08,14.46,10.4a6.72,6.72,0,0,1-.9,3C300.78,443.21,293.57,445.87,286.56,444.75Z" style="fill:#ffcd6d"/><path d="M274.37,436.79s0,0,0-.06h.2Z" style="fill:#504b66"/><path d="M288.72,448.08c-8.26-.42-14.73-5.07-14.46-10.4a5.28,5.28,0,0,1,.11-.89,17.4,17.4,0,0,0,12.19,8c7,1.12,14.22-1.54,16.7-2.58C301.1,445.92,295.35,448.41,288.72,448.08Z" style="fill:#e89e36"/><g style="clip-path:url(#w)"><polygon points="281.13 417.24 264.02 449.08 265.51 449.54 282.62 417.7 281.13 417.24" style="fill:#fff"/><polygon points="286.3 418.86 269.19 450.7 270.68 451.16 287.79 419.32 286.3 418.86" style="fill:#fff"/><polygon points="291.47 420.48 274.37 452.32 275.85 452.78 292.96 420.94 291.47 420.48" style="fill:#fff"/><polygon points="296.64 422.1 279.54 453.94 281.02 454.4 298.13 422.56 296.64 422.1" style="fill:#fff"/><polygon points="301.81 423.71 284.71 455.56 286.19 456.02 303.3 424.18 301.81 423.71" style="fill:#fff"/><polygon points="306.99 425.33 289.88 457.17 291.36 457.64 308.47 425.8 306.99 425.33" style="fill:#fff"/><polygon points="312.16 426.95 295.05 458.79 296.53 459.26 313.64 427.42 312.16 426.95" style="fill:#fff"/></g><path d="M387.52,383.66a12,12,0,0,1,2.33,1.54l.88,3.18a10.88,10.88,0,0,1-2.79,2A5.54,5.54,0,0,1,387.52,383.66Z" style="fill:#e89e36"/><path d="M384.62,388.75s-1.74,0-1.89-1.45,2-2,2-2-2.61-2.25-.15-2.41a5.81,5.81,0,0,1,2.89.74,5.54,5.54,0,0,0,.42,6.68c-1.87,1-3.9,1.53-4.41.94C382.73,390.35,384.62,388.75,384.62,388.75Z" style="fill:#ffcd6d"/><path d="M408.32,382.4c1.71-.81,3.43-1.23,3.9-.7.8.93-1.09,2.53-1.09,2.53s1.74,0,1.89,1.46-2,2-2,2,2.61,2.25.15,2.41a7.06,7.06,0,0,1-4-1.35A6.78,6.78,0,0,0,408.32,382.4Z" style="fill:#ffcd6d"/><path d="M405,384.6a11.64,11.64,0,0,1,3.3-2.2,6.78,6.78,0,0,1-1.16,6.31,11.66,11.66,0,0,1-1.26-.93Z" style="fill:#e89e36"/><polygon points="388.17 386.96 388.17 386.96 388.17 386.96 388.17 386.96" style="fill:none"/><path d="M396.93,390a11.06,11.06,0,0,1-8.76-3.07h0l.12-.06-.12,0c-.12-3.15,3.41-6.3,8.27-7.24,5.17-1,9.89.89,10.53,4.23a4.25,4.25,0,0,1-.1,2C405.49,386.91,401.43,389.66,396.93,390Z" style="fill:#ffcd6d"/><path d="M388.17,387v0l.12,0Z" style="fill:#504b66"/><path d="M398.77,391.76c-5.17,1-9.89-.89-10.53-4.23a3.7,3.7,0,0,1-.07-.57,11.06,11.06,0,0,0,8.76,3.07c4.5-.37,8.56-3.12,9.94-4.14C406.11,388.54,402.92,391,398.77,391.76Z" style="fill:#e89e36"/><g style="clip-path:url(#x)"><polygon points="389.38 373.83 383.64 396.14 384.63 396.2 390.37 373.9 389.38 373.83" style="fill:#fff"/><polygon points="392.83 374.05 387.09 396.36 388.08 396.42 393.82 374.11 392.83 374.05" style="fill:#fff"/><polygon points="396.27 374.26 390.53 396.57 391.52 396.63 397.26 374.32 396.27 374.26" style="fill:#fff"/><polygon points="399.72 374.48 393.98 396.79 394.97 396.85 400.71 374.54 399.72 374.48" style="fill:#fff"/><polygon points="403.16 374.69 397.43 397 398.42 397.06 404.15 374.75 403.16 374.69" style="fill:#fff"/><polygon points="406.61 374.91 400.87 397.21 401.86 397.28 407.6 374.97 406.61 374.91" style="fill:#fff"/><polygon points="410.06 375.12 404.32 397.43 405.31 397.49 411.05 375.18 410.06 375.12" style="fill:#fff"/></g><path d="M121.63,411.49A12.35,12.35,0,0,1,124,413l.89,3.18a10.69,10.69,0,0,1-2.8,1.95A5.54,5.54,0,0,1,121.63,411.49Z" style="fill:#e89e36"/><path d="M118.73,416.59s-1.74,0-1.88-1.46,2-2,2-2-2.61-2.25-.15-2.41a5.88,5.88,0,0,1,2.89.73,5.54,5.54,0,0,0,.42,6.68c-1.87,1-3.9,1.53-4.4.95C116.84,418.19,118.73,416.59,118.73,416.59Z" style="fill:#ffcd6d"/><path d="M142.43,410.24c1.72-.81,3.44-1.23,3.9-.7.8.93-1.09,2.53-1.09,2.53s1.74,0,1.89,1.45-2,2-2,2,2.62,2.25.15,2.41a7.1,7.1,0,0,1-3.95-1.35A6.74,6.74,0,0,0,142.43,410.24Z" style="fill:#ffcd6d"/><path d="M139.13,412.44a11.64,11.64,0,0,1,3.3-2.2,6.74,6.74,0,0,1-1.15,6.31,11.27,11.27,0,0,1-1.27-.93Z" style="fill:#e89e36"/><polygon points="122.28 414.8 122.28 414.8 122.28 414.8 122.28 414.8" style="fill:none"/><path d="M131,417.87a11,11,0,0,1-8.75-3.07h0l.11-.07-.12,0c-.12-3.15,3.41-6.3,8.27-7.24,5.18-1,9.89.89,10.53,4.23a4.12,4.12,0,0,1-.1,2C139.61,414.75,135.55,417.49,131,417.87Z" style="fill:#ffcd6d"/><path d="M122.29,414.8v0l.12,0Z" style="fill:#504b66"/><path d="M132.88,419.6c-5.17,1-9.88-.89-10.53-4.23a3.68,3.68,0,0,1-.06-.57,11,11,0,0,0,8.75,3.07c4.51-.38,8.57-3.12,9.94-4.14C140.22,416.38,137,418.8,132.88,419.6Z" style="fill:#e89e36"/><g style="clip-path:url(#y)"><polygon points="123.49 401.67 117.75 423.98 118.75 424.04 124.48 401.74 123.49 401.67" style="fill:#fff"/><polygon points="126.94 401.89 121.2 424.2 122.19 424.26 127.93 401.95 126.94 401.89" style="fill:#fff"/><polygon points="130.38 402.1 124.65 424.41 125.64 424.47 131.38 402.16 130.38 402.1" style="fill:#fff"/><polygon points="133.83 402.32 128.09 424.63 129.08 424.69 134.82 402.38 133.83 402.32" style="fill:#fff"/><polygon points="137.28 402.53 131.54 424.84 132.53 424.9 138.27 402.59 137.28 402.53" style="fill:#fff"/><polygon points="140.72 402.75 134.99 425.05 135.97 425.12 141.71 402.81 140.72 402.75" style="fill:#fff"/><polygon points="144.17 402.96 138.43 425.27 139.42 425.33 145.16 403.02 144.17 402.96" style="fill:#fff"/></g><path d="M106.25,387.78a11,11,0,0,1,1.7,1.85l.09,3a9.65,9.65,0,0,1-2.86,1.1A5,5,0,0,1,106.25,387.78Z" style="fill:#2167d8"/><path d="M102.63,391.6s-1.51-.41-1.34-1.68,2.21-1.27,2.21-1.27-1.79-2.53.39-2.13a5.22,5.22,0,0,1,2.36,1.26,5,5,0,0,0-1.07,5.91c-1.84.44-3.73.5-4-.12C100.63,392.59,102.63,391.6,102.63,391.6Z" style="fill:#4080ff"/><path d="M124.66,391.16c1.67-.34,3.26-.34,3.55.23.5,1-1.49,2-1.49,2s1.51.4,1.33,1.67-2.2,1.27-2.2,1.27,1.79,2.53-.39,2.14a6.3,6.3,0,0,1-3.16-2A6.07,6.07,0,0,0,124.66,391.16Z" style="fill:#4080ff"/><path d="M121.31,392.37a10.22,10.22,0,0,1,3.35-1.21,6.07,6.07,0,0,1-2.36,5.25,10.21,10.21,0,0,1-.9-1.08Z" style="fill:#2167d8"/><polygon points="106.11 390.8 106.11 390.8 106.11 390.8 106.11 390.8" style="fill:none"/><path d="M113.09,395.37a10,10,0,0,1-7-4.57h0l.12,0h-.11c.56-2.77,4.33-4.76,8.77-4.53,4.72.24,8.43,2.9,8.27,5.95a3.82,3.82,0,0,1-.51,1.7A19,19,0,0,1,113.09,395.37Z" style="fill:#4080ff"/><path d="M106.11,390.8v0h.11Z" style="fill:#504b66"/><path d="M114.32,397.27c-4.72-.24-8.43-2.91-8.27-5.95a4.35,4.35,0,0,1,.06-.52,10,10,0,0,0,7,4.57,19,19,0,0,0,9.56-1.48C121.41,396,118.11,397.46,114.32,397.27Z" style="fill:#2167d8"/><g style="clip-path:url(#z)"><polygon points="109.99 379.61 100.19 397.83 101.03 398.1 110.84 379.88 109.99 379.61" style="fill:#fff"/><polygon points="112.95 380.54 103.14 398.76 103.99 399.03 113.8 380.81 112.95 380.54" style="fill:#fff"/><polygon points="115.91 381.47 106.1 399.69 106.95 399.96 116.76 381.74 115.91 381.47" style="fill:#fff"/><polygon points="118.86 382.4 109.06 400.62 109.91 400.89 119.72 382.67 118.86 382.4" style="fill:#fff"/><polygon points="121.82 383.33 112.02 401.55 112.87 401.81 122.67 383.59 121.82 383.33" style="fill:#fff"/><polygon points="124.78 384.25 114.98 402.48 115.83 402.74 125.63 384.52 124.78 384.25" style="fill:#fff"/><polygon points="127.74 385.18 117.94 403.4 118.79 403.67 128.59 385.45 127.74 385.18" style="fill:#fff"/></g><path d="M252,441a18.15,18.15,0,0,1,3.42,2.15l1.39,4.55a16,16,0,0,1-4,2.93C249.77,446.6,250.77,443.11,252,441Z" style="fill:#2167d8"/><path d="M248,448.43s-2.51,0-2.78-2,2.89-2.91,2.89-2.91-3.86-3.16-.31-3.47a8.48,8.48,0,0,1,4.2,1c-1.27,2.14-2.27,5.63.85,9.63-2.67,1.45-5.57,2.35-6.32,1.52C245.37,450.81,248,448.43,248,448.43Z" style="fill:#4080ff"/><path d="M282,438.39c2.45-1.23,4.92-1.9,5.6-1.15,1.2,1.31-1.47,3.69-1.47,3.69s2.51,0,2.77,2-2.88,2.91-2.88,2.91,3.86,3.16.3,3.47a10.23,10.23,0,0,1-5.75-1.79C283.08,443.78,282.82,440.58,282,438.39Z" style="fill:#4080ff"/><path d="M277.33,441.69a16.72,16.72,0,0,1,4.68-3.3c.81,2.19,1.07,5.39-1.43,9.16a17.38,17.38,0,0,1-1.86-1.31Z" style="fill:#2167d8"/><polygon points="253.1 445.72 253.1 445.71 253.1 445.72 253.1 445.72" style="fill:none"/><path d="M265.86,449.83a16.05,16.05,0,0,1-12.76-4.11h0l.17-.1-.17.05c-.3-4.54,4.69-9.22,11.67-10.75,7.43-1.64,14.3.92,15.35,5.71a6.1,6.1,0,0,1-.07,2.85C278.1,445,272.34,449.12,265.86,449.83Z" style="fill:#4080ff"/><path d="M253.1,445.72v-.05l.17-.05Z" style="fill:#504b66"/><path d="M268.58,452.26c-7.43,1.63-14.31-.93-15.36-5.72a5.79,5.79,0,0,1-.12-.82,16.05,16.05,0,0,0,12.76,4.11c6.48-.71,12.24-4.82,14.19-6.35C279,447.34,274.54,451,268.58,452.26Z" style="fill:#2167d8"/><g style="clip-path:url(#aa)"><polygon points="254.36 426.73 246.9 459.13 248.33 459.19 255.79 426.78 254.36 426.73" style="fill:#fff"/><polygon points="259.35 426.91 251.88 459.32 253.31 459.37 260.78 426.96 259.35 426.91" style="fill:#fff"/><polygon points="264.33 427.09 256.87 459.5 258.3 459.55 265.76 427.15 264.33 427.09" style="fill:#fff"/><polygon points="269.31 427.28 261.85 459.68 263.28 459.74 270.74 427.33 269.31 427.28" style="fill:#fff"/><polygon points="274.29 427.46 266.83 459.87 268.26 459.92 275.72 427.51 274.29 427.46" style="fill:#fff"/><polygon points="279.27 427.64 271.81 460.05 273.24 460.1 280.7 427.69 279.27 427.64" style="fill:#fff"/><polygon points="284.25 427.82 276.79 460.23 278.22 460.28 285.68 427.88 284.25 427.82" style="fill:#fff"/></g><path d="M362.12,410.86a17.19,17.19,0,0,1,3.26,2.18l1.23,4.46a15.76,15.76,0,0,1-3.93,2.73C359.77,416.26,360.83,412.9,362.12,410.86Z" style="fill:#2167d8"/><path d="M358,418s-2.43-.05-2.63-2.05,2.87-2.74,2.87-2.74-3.65-3.17-.2-3.38a8.17,8.17,0,0,1,4.05,1c-1.29,2-2.35,5.4.56,9.37-2.63,1.34-5.47,2.13-6.18,1.3C355.38,420.23,358,418,358,418Z" style="fill:#4080ff"/><path d="M391.29,409.18c2.41-1.13,4.82-1.71,5.47-1,1.12,1.31-1.53,3.55-1.53,3.55s2.43.05,2.63,2.05-2.87,2.74-2.87,2.74,3.65,3.17.2,3.38a10,10,0,0,1-5.55-1.9C392.18,414.44,392,411.32,391.29,409.18Z" style="fill:#4080ff"/><path d="M386.65,412.25a16.2,16.2,0,0,1,4.64-3.07c.73,2.14.89,5.26-1.65,8.85a17.28,17.28,0,0,1-1.76-1.32Z" style="fill:#2167d8"/><polygon points="363.02 415.5 363.02 415.5 363.02 415.5 363.02 415.5" style="fill:none"/><path d="M375.29,419.84A15.58,15.58,0,0,1,363,415.5h0l.17-.09-.17.05c-.16-4.41,4.81-8.82,11.62-10.12,7.26-1.38,13.87,1.29,14.75,6a5.78,5.78,0,0,1-.15,2.77C387.31,415.5,381.61,419.33,375.29,419.84Z" style="fill:#4080ff"/><path d="M363,415.49v0l.17-.05Z" style="fill:#504b66"/><path d="M377.87,422.27c-7.26,1.38-13.86-1.29-14.75-6a5.64,5.64,0,0,1-.1-.8,15.58,15.58,0,0,0,12.27,4.34c6.32-.51,12-4.34,13.95-5.77C388.16,417.78,383.69,421.16,377.87,422.27Z" style="fill:#2167d8"/><g style="clip-path:url(#ab)"><polygon points="364.77 397.1 356.63 428.35 358.02 428.44 366.16 397.19 364.77 397.1" style="fill:#fff"/><polygon points="369.6 397.41 361.47 428.67 362.86 428.76 370.99 397.5 369.6 397.41" style="fill:#fff"/><polygon points="374.43 397.72 366.3 428.98 367.69 429.07 375.82 397.81 374.43 397.72" style="fill:#fff"/><polygon points="379.26 398.04 371.13 429.3 372.52 429.39 380.65 398.13 379.26 398.04" style="fill:#fff"/><polygon points="384.09 398.35 375.96 429.61 377.35 429.7 385.48 398.44 384.09 398.35" style="fill:#fff"/><polygon points="388.92 398.67 380.79 429.92 382.18 430.01 390.31 398.76 388.92 398.67" style="fill:#fff"/><polygon points="393.75 398.98 385.62 430.24 387.01 430.33 395.14 399.07 393.75 398.98" style="fill:#fff"/></g><path d="M214.93,438.91a.67.67,0,0,1,.24.46c0,2.23-16.68,6.65-37.22,6.56a140.25,140.25,0,0,1-16.2-1l16.16-110.5Z" style="fill:#ffcd6d"/><path d="M140.78,439l.05-.13h0l37.08-104.42-16.16,110.5c-12.41-1.48-21-4.27-21-5.87,0,0,0,0,0-.07Z" style="fill:#e89e36"/><g style="clip-path:url(#ac)"><polygon points="149.16 415.38 165.44 419.72 167.1 408.32 153.01 404.56 149.16 415.38" style="fill:#e89e36"/><polygon points="154.56 400.19 167.78 403.72 169.44 392.31 158.4 389.37 154.56 400.19" style="fill:#e89e36"/><polygon points="143.77 430.57 163.1 435.72 164.77 424.32 147.61 419.75 143.77 430.57" style="fill:#e89e36"/><path d="M140.83,438.85h0l-.05.13h0s0,.05,0,.07c0,1.6,8.56,4.39,21,5.87l.68-4.61-20.21-5.39Z" style="fill:#e89e36"/><polygon points="159.95 385 170.12 387.71 171.78 376.31 163.79 374.18 159.95 385" style="fill:#e89e36"/><polygon points="169.18 358.99 165.34 369.82 172.46 371.71 174.12 360.31 169.18 358.99" style="fill:#e89e36"/><polygon points="177.91 334.43 170.73 354.63 174.79 355.71 177.91 334.43" style="fill:#e89e36"/><polygon points="134.71 428.15 134.69 432.93 142.22 434.93 143.77 430.57 134.71 428.15" style="fill:#43b3ff"/><polygon points="214.26 454.14 214.28 449.36 163.1 435.72 162.43 440.32 214.26 454.14" style="fill:#43b3ff"/><polygon points="142.22 434.93 162.43 440.32 163.1 435.72 143.77 430.57 142.22 434.93" style="fill:#4080ff"/><polygon points="214.33 437.53 214.35 432.76 165.44 419.72 164.77 424.32 214.33 437.53" style="fill:#43b3ff"/><polygon points="134.78 411.55 134.76 416.32 147.61 419.75 149.16 415.38 134.78 411.55" style="fill:#43b3ff"/><polygon points="147.61 419.75 164.77 424.32 165.44 419.72 149.16 415.38 147.61 419.75" style="fill:#4080ff"/><polygon points="134.84 394.94 134.83 399.71 153.01 404.56 154.56 400.19 134.84 394.94" style="fill:#43b3ff"/><polygon points="214.4 420.92 214.41 416.15 167.78 403.72 167.1 408.32 214.4 420.92" style="fill:#43b3ff"/><polygon points="153.01 404.56 167.1 408.32 167.78 403.72 154.56 400.19 153.01 404.56" style="fill:#4080ff"/><polygon points="214.46 404.31 214.48 399.54 170.12 387.71 169.44 392.31 214.46 404.31" style="fill:#43b3ff"/><polygon points="134.91 378.33 134.89 383.1 158.4 389.37 159.95 385 134.91 378.33" style="fill:#43b3ff"/><polygon points="158.4 389.37 169.44 392.31 170.12 387.71 159.95 385 158.4 389.37" style="fill:#4080ff"/><polygon points="134.98 361.72 134.96 366.5 163.79 374.18 165.34 369.82 134.98 361.72" style="fill:#43b3ff"/><polygon points="214.53 387.71 214.55 382.94 172.46 371.71 171.78 376.31 214.53 387.71" style="fill:#43b3ff"/><polygon points="163.79 374.18 171.78 376.31 172.46 371.71 165.34 369.82 163.79 374.18" style="fill:#4080ff"/><polygon points="135.05 345.12 135.03 349.89 169.18 358.99 170.73 354.63 135.05 345.12" style="fill:#43b3ff"/><polygon points="214.6 371.1 214.62 366.33 174.79 355.71 174.12 360.31 214.6 371.1" style="fill:#43b3ff"/><polygon points="174.79 355.71 170.73 354.63 169.18 358.99 174.12 360.31 174.79 355.71" style="fill:#4080ff"/><polygon points="135.1 333.28 214.67 354.49 214.69 349.72 135.12 328.51 135.1 333.28" style="fill:#e89e36"/></g><path d="M177.61,322.53l-2.22,6.73a.52.52,0,0,1-.49.35l-7.08,0a.52.52,0,0,0-.31.93l5.71,4.19a.51.51,0,0,1,.19.57L171.19,342a.52.52,0,0,0,.79.58l5.75-4.14a.51.51,0,0,1,.6,0l5.71,4.19a.52.52,0,0,0,.8-.58l-2.16-6.74a.51.51,0,0,1,.19-.57l5.74-4.14a.51.51,0,0,0-.3-.93l-7.07,0a.51.51,0,0,1-.49-.36l-2.16-6.74A.52.52,0,0,0,177.61,322.53Z" style="fill:#ffcd6d"/></g></svg>